<svg xmlns="http://www.w3.org/2000/svg" viewBox="0 0 474.6 240.32"><defs><style>.cls-1{fill:#edf6fc;}.cls-2{fill:#7ba9bf;}.cls-3{fill:#f79a54;}.cls-4{fill:#d2efff;}.cls-5{fill:#fff;}</style></defs><title>Asset 47</title><g id="Layer_2" data-name="Layer 2"><g id="Layer_1-2" data-name="Layer 1"><path class="cls-1" d="M450.62,202.51H339.32c-10.59,0-19.18-6.61-19.18-14.75S328.73,173,339.32,173h35.74c13.24,0,24-8.26,24-18.44s-10.73-18.44-24-18.44H241.68c.75,10.35,1.3,19.46,1.7,27,1.75,32.92,1.14,43.27-8,49.59a31.27,31.27,0,0,1-12.15,4.67l-97.55-.56A14.47,14.47,0,0,0,125,221v.92c0,10.19,10.73,18.44,24,18.44H450.62c13.24,0,24-8.26,24-18.44V221C474.6,210.77,463.86,202.51,450.62,202.51Z"/><path class="cls-1" d="M180.88,152.53c-1.1-7.6-.28-11.76-1.09-31.2-.35-8.41-.59-16.88.54-25.24a45.71,45.71,0,0,1,1.43-7H26.14a20.46,20.46,0,1,0,0,40.92H111a16.37,16.37,0,0,1,0,32.74H80.36a20.46,20.46,0,0,0-20.46,20.46v1a20.46,20.46,0,0,0,20.46,20.46L222,200.85C187.15,180,182,160.2,180.88,152.53Z"/><path class="cls-1" d="M329.43,95.06H286.89c1.81,8.51,1.44,17,.58,25.57h42c10.6,0,19.19-5.72,19.19-12.79S340,95.06,329.43,95.06Z"/><path class="cls-2" d="M129.09,17.56l-1.52-.88-3.73,6.46a3,3,0,0,0,2.56,4.43h7.46a2.95,2.95,0,0,0,2.56-4.43l-3.73-6.46a3,3,0,0,0-5.11,0l1.52.88,1.52.88-.49-.28v.56a.58.58,0,0,0,.49-.28l-.49-.28v0l-.48.28a.58.58,0,0,0,.48.28v-.56l-.48.28,3.73,6.46.49-.28h-.56l.07.28.49-.28h0l-.4-.38a.55.55,0,0,0-.15.38h.55l-.4-.38.41.39v-.57l-.41.18.41.39v-.57H126.4v.57l.41-.39-.41-.18v.57l.41-.39-.4.38H127a.54.54,0,0,0-.15-.38l-.4.38h0l.49.28.07-.28h-.56l.49.28,3.73-6.46Z"/><path class="cls-2" d="M403,109.11l-1-.6-2.55,4.42a2,2,0,0,0,1.75,3h5.1a2,2,0,0,0,1.75-3h0l-2.55-4.42a2,2,0,0,0-1.75-1,2,2,0,0,0-1.75,1h0l1,.6,1,.6-.34-.19.19.34.15-.14-.34-.19.19.34-.18-.33v.38l.18,0-.18-.33v0l-.18.33.18,0v-.38l-.18.33.18-.33-.33.19.15.14.18-.33-.33.19,2.55,4.42h0l.33-.19h-.37l0,.19.33-.19h0l-.27-.26-.1.26h.37l-.27-.26.28.27v-.39l-.28.12.28.27v-.39h-5.1v.39l.28-.26-.28-.12v.39l.28-.26-.27.26h.37l-.1-.26-.27.26h0l.34.19,0-.19h-.38l.34.19,2.55-4.42h0Z"/><path class="cls-3" d="M354.93,55.67l-.8-.8-2.87,2.88h0a1.67,1.67,0,0,0,0,2.37h0L354.13,63a1.68,1.68,0,0,0,2.36,0h0l2.88-2.87a1.68,1.68,0,0,0,0-2.37l-2.88-2.87a1.68,1.68,0,0,0-2.37,0h0l.8.8.8.79-.41-.41v.59l.41-.17-.41-.41v0l-.41.41a.58.58,0,0,0,.41.17v-.58l-.41.41,2.87,2.88.41-.41h-.58a.59.59,0,0,0,.17.41l.41-.41h0l-.41-.41a.58.58,0,0,0-.17.41h.58l-.41-.41-2.88,2.87h0l.41.41v-.58a.58.58,0,0,0-.41.17l.41.41v0l.41-.41a.58.58,0,0,0-.41-.17v.58l.41-.41-2.88-2.88h0l-.41.41H353a.59.59,0,0,0-.17-.41l-.41.41h0l.41.41a.59.59,0,0,0,.17-.41h-.58l.41.41h0l2.88-2.88h0Z"/><path class="cls-3" d="M311.77,209.25l-.91-.91-3.3,3.3h0a1.92,1.92,0,0,0,0,2.72h0l3.3,3.3a1.92,1.92,0,0,0,2.71,0h0l3.3-3.3a1.92,1.92,0,0,0,0-2.71l-3.3-3.3a1.92,1.92,0,0,0-2.72,0h0l.91.91.92.91-.48-.47v.67a.67.67,0,0,0,.47-.2l-.48-.47v0l-.47.47a.67.67,0,0,0,.47.19v-.67l-.47.47,3.3,3.3.47-.47h-.67a.68.68,0,0,0,.2.47l.47-.47h0l-.47-.47a.68.68,0,0,0-.19.47h.67l-.47-.47-3.3,3.3h0l.46.47v-.66a.66.66,0,0,0-.46.19l.46.47v0l.47-.47a.67.67,0,0,0-.47-.19v.67l.47-.47-3.3-3.3h0l-.47.47h.67a.67.67,0,0,0-.2-.47l-.47.47h0l.47.47a.67.67,0,0,0,.2-.47h-.67l.47.47h0l3.3-3.3h0Z"/><path class="cls-3" d="M11.2,204.55h-2A2.57,2.57,0,1,1,6.61,202a2.57,2.57,0,0,1,2.57,2.57h4a6.61,6.61,0,1,0-6.61,6.61,6.61,6.61,0,0,0,6.61-6.61Z"/><path class="cls-3" d="M193.2,1.58l-.86-.86L189,4.1a2.48,2.48,0,0,0,0,3.51l3.29,3.29a2.48,2.48,0,0,0,3.51,0l3.38-3.38a2.48,2.48,0,0,0,0-3.51L195.86.73a2.48,2.48,0,0,0-3.51,0l.86.86.86.86,0,0,0,0,3.29,3.29,0,0,0,0-3.37,3.38,0,0,0,0L190.69,5.9l0,0,0,0,3.38-3.38Z"/><path class="cls-4" d="M316.86,2.32l-1.49-.86-3.65,6.32a2.89,2.89,0,0,0,2.5,4.33h7.3A2.89,2.89,0,0,0,324,7.79h0l-3.65-6.32h0a2.89,2.89,0,0,0-5,0h0l1.49.86,1.49.86-.48-.28.27.49.21-.21-.48-.28.27.49-.26-.47v.54l.26-.07-.26-.47v0l-.26.48.26.07V2.91l-.26.48.26-.48-.48.28.21.2.26-.48-.48.28h0l3.65,6.32h0l.47-.27H321l.07.27.47-.27h0l-.39-.37a.52.52,0,0,0-.15.37h.53l-.39-.37.4.38V8.68l-.4.17.4.38V8.68h-7.3v.55l.4-.38-.4-.17v.55l.4-.38-.39.37h.54a.52.52,0,0,0-.15-.37l-.39.37h0l.48.28.07-.28h-.55l.48.28,3.65-6.32h0Z"/><path class="cls-3" d="M391.23,163.15H390a1.61,1.61,0,1,1-1.61-1.61,1.62,1.62,0,0,1,1.61,1.61h2.54a4.15,4.15,0,1,0-4.15,4.15,4.15,4.15,0,0,0,4.15-4.15Z"/><path class="cls-5" d="M293,99.8c6.49,10.89-15.82,105.27-63.15,104.2-22.12-.5-38-21.37-45.79-31.58-2.77-3.64-29.75-40-15.79-69.47,1.84-3.87,6.55-14.4,16.23-16.73,15.73-3.79,21.95,15,42.09,16.37,22.66,1.51,30.89-18.26,51.45-14C288.21,90.65,288.73,92.59,293,99.8Z"/><path class="cls-3" d="M248.86,94.44a3.69,3.69,0,0,1-2.56.79,4.88,4.88,0,0,0-3.13.75c-1.36.83-2.76,1.62-4,2.55a4.61,4.61,0,0,0-.91,6.19,4.67,4.67,0,0,0,6,1.76,44.3,44.3,0,0,0,4.82-2.93,3.12,3.12,0,0,0,1.51-2.7,2.84,2.84,0,0,1,1.53-2.9c-.9-1.28-1.8-2.75-2.69-3.84Z"/><path class="cls-2" d="M300.15,112.2a26.33,26.33,0,0,0-2.63-6.92,39.66,39.66,0,0,0-13.19-14c-7.14-4.45-14.79-5.22-22.86-3a42.07,42.07,0,0,0-12.09,5.79c.9,1.08,1.79,2.55,2.69,3.84.19-.12.39-.24.6-.35.51-.27,1-.63,1.45-.91,5.14-2.91,10.47-5.06,16.64-4.83a21.63,21.63,0,0,1,10.44,3.08A35.16,35.16,0,0,1,292,105.57,22.34,22.34,0,0,1,295.85,116a40.33,40.33,0,0,1-.72,13.07,78,78,0,0,1-6,17,152,152,0,0,1-13.85,23.07c-1,1.36-2,2.69-3,4-2.2-.7-2.55-.56-3.83,1.21a79.77,79.77,0,0,1-12.43,14,55.83,55.83,0,0,1-9,6.48,33.53,33.53,0,0,1-13.65,4.46A30.33,30.33,0,0,1,218,196.47,45.61,45.61,0,0,1,207.72,190a74.24,74.24,0,0,1-10.2-10.16c-1.56-1.93-3-3.93-4.56-5.87-.84-1-1.4-1.14-2.7-.7l-.61.2c-1.16-1.56-2.28-3-3.37-4.54a148.76,148.76,0,0,1-13.58-22.64,76.56,76.56,0,0,1-5.05-13.11,40.49,40.49,0,0,1-1.89-11.47c0-1.43,0-2.87,0-4.3a21.85,21.85,0,0,1,2.92-10.18,35.51,35.51,0,0,1,9.73-10.93c6.12-4.49,12.93-5.55,20.27-3.51a40.25,40.25,0,0,1,10.87,5.17c.89-1.08,1.3-2.7,2.31-4.12A41.2,41.2,0,0,0,200,88.24a29.24,29.24,0,0,0-12.65-.77c-6,.92-10.89,3.84-15.17,7.79a52.86,52.86,0,0,0-4.9,5.37,28,28,0,0,0-6.38,15.93,51.33,51.33,0,0,0,2.95,20.83A110.08,110.08,0,0,0,172,155.56a161.45,161.45,0,0,0,9.75,15.34l3.83,5.31c-2.1,1.89-1.41,1.79,1.4,6.1.59.9,1.22,1.77,1.89,2.61,2.35,2.92,4.73,5.82,7.29,8.56a74.92,74.92,0,0,0,6.38,5.87,48,48,0,0,0,16.21,9c2,.64,4,1.07,6.07,1.62,0,.55.07,1.1.07,1.64,0,3.46,0,6,0,6.68s-.43,15.31,3.71,16.75a8.78,8.78,0,0,0,5.24,0c3.56-1.29,3.14-12.12,3.29-16.47.07-2.19,0-4.39,0-6.59s-.15-2.12,1.6-2.49a42.29,42.29,0,0,0,10.08-3.44,60.74,60.74,0,0,0,17.09-12.81,103.35,103.35,0,0,0,10.92-13.73c1.17-1.73,1.15-1.89-.29-3.43-.06-.07-.06-.2-.11-.37.27-.38.55-.8.85-1.2a160.14,160.14,0,0,0,13.65-21.24,98.21,98.21,0,0,0,7.88-19A46.63,46.63,0,0,0,300.15,112.2Z"/><path class="cls-3" d="M210,98.19a2.26,2.26,0,0,1,1.11,2.56,2.69,2.69,0,0,0,1.44,2.79c1.23.63,2.29,1.54,3.51,2.19a9.65,9.65,0,0,0,2.84,1.15,5,5,0,0,0,5.23-3.28c.54-1.4,0-4.28-1.81-5.34-1-.6-2-1.33-3-1.92a5.22,5.22,0,0,0-3.2-1.11,5.3,5.3,0,0,1-3.83-1.2l-.34-.21c-1,1.42-1.41,3-2.31,4.12Z"/><path class="cls-2" d="M31.25,84.21H30a1.61,1.61,0,1,1-1.61-1.61A1.62,1.62,0,0,1,30,84.21h2.54a4.15,4.15,0,1,0-4.15,4.15,4.15,4.15,0,0,0,4.15-4.15Z"/></g></g></svg>